<svg xmlns="http://www.w3.org/2000/svg" xmlns:xlink="http://www.w3.org/1999/xlink" width="500" zoomAndPan="magnify" viewBox="0 0 375 374.999991" height="500" preserveAspectRatio="xMidYMid meet" version="1.0"><defs><g/></defs><path stroke-linecap="butt" transform="matrix(0.75, 0, 0, 0.75, 140.061763, 217.813111)" fill="none" stroke-linejoin="miter" d="M 0.000982263 4.999185 L 84.433279 4.999185 " stroke="#012a4a" stroke-width="10" stroke-opacity="1" stroke-miterlimit="4"/><path stroke-linecap="butt" transform="matrix(0, 0.75, -0.75, 0, 147.557925, 161.219404)" fill="none" stroke-linejoin="miter" d="M -0.000871751 4.999109 L 82.462675 4.999109 " stroke="#012a4a" stroke-width="10" stroke-opacity="1" stroke-miterlimit="4"/><path stroke-linecap="butt" transform="matrix(-0.75, 0, 0, -0.75, 234.929799, 157.179189)" fill="none" stroke-linejoin="miter" d="M 0.000149297 4.999335 L 84.432447 4.999335 " stroke="#012a4a" stroke-width="10" stroke-opacity="1" stroke-miterlimit="4"/><path stroke-linecap="butt" transform="matrix(0, -0.75, 0.75, 0, 227.433652, 213.772896)" fill="none" stroke-linejoin="miter" d="M -0.000721517 4.999923 L 82.462826 4.999923 " stroke="#012a4a" stroke-width="10" stroke-opacity="1" stroke-miterlimit="4"/><g fill="#012a4a" fill-opacity="1"><g transform="translate(182.383293, 207.634897)"><g><path d="M 25.65625 -44.1875 L 43.5 0 L 32.671875 0 L 29.40625 -8.84375 L 12.59375 -8.84375 L 9.3125 0 L -1.5 0 L 16.34375 -44.1875 Z M 25.984375 -17.671875 L 21.046875 -30.53125 L 20.9375 -30.53125 L 16.015625 -17.671875 Z M 25.984375 -17.671875 "/></g></g></g><g fill="#014f86" fill-opacity="1"><g transform="translate(151.198467, 207.634897)"><g><path d="M 13.28125 -17.734375 L 13.28125 0 L 3.21875 0 L 3.21875 -44.1875 L 13.28125 -44.1875 L 13.28125 -26.5625 L 27.53125 -26.5625 L 27.53125 -44.1875 L 37.59375 -44.1875 L 37.59375 0 L 27.53125 0 L 27.53125 -17.734375 Z M 13.28125 -17.734375 "/></g></g></g></svg>