<svg xmlns="http://www.w3.org/2000/svg" xmlns:xlink="http://www.w3.org/1999/xlink" width="500" zoomAndPan="magnify" viewBox="0 0 375 374.999991" height="500" preserveAspectRatio="xMidYMid meet" version="1.0"><defs><g/></defs><g fill="#a9d6e5" fill-opacity="1"><g transform="translate(62.844665, 199.675084)"><g><path d="M 13.28125 -17.734375 L 13.28125 0 L 3.21875 0 L 3.21875 -44.1875 L 13.28125 -44.1875 L 13.28125 -26.5625 L 27.53125 -26.5625 L 27.53125 -44.1875 L 37.59375 -44.1875 L 37.59375 0 L 27.53125 0 L 27.53125 -17.734375 Z M 13.28125 -17.734375 "/></g></g></g><g fill="#a9d6e5" fill-opacity="1"><g transform="translate(99.099148, 199.675084)"><g><path d="M 31.015625 -12.421875 L 11.09375 -12.421875 C 11.09375 -10.492188 11.71875 -9.066406 12.96875 -8.140625 C 14.21875 -7.210938 15.570312 -6.75 17.03125 -6.75 C 18.570312 -6.75 19.785156 -6.953125 20.671875 -7.359375 C 21.566406 -7.773438 22.585938 -8.585938 23.734375 -9.796875 L 30.578125 -6.375 C 27.722656 -1.59375 22.976562 0.796875 16.34375 0.796875 C 12.195312 0.796875 8.640625 -0.617188 5.671875 -3.453125 C 2.710938 -6.296875 1.234375 -9.71875 1.234375 -13.71875 C 1.234375 -17.71875 2.710938 -21.144531 5.671875 -24 C 8.640625 -26.851562 12.195312 -28.28125 16.34375 -28.28125 C 20.695312 -28.28125 24.238281 -27.019531 26.96875 -24.5 C 29.695312 -21.988281 31.0625 -18.394531 31.0625 -13.71875 C 31.0625 -13.070312 31.046875 -12.640625 31.015625 -12.421875 Z M 11.359375 -17.671875 L 21.796875 -17.671875 C 21.585938 -19.097656 21.023438 -20.195312 20.109375 -20.96875 C 19.203125 -21.738281 18.035156 -22.125 16.609375 -22.125 C 15.035156 -22.125 13.785156 -21.710938 12.859375 -20.890625 C 11.929688 -20.066406 11.429688 -18.992188 11.359375 -17.671875 Z M 11.359375 -17.671875 "/></g></g></g><g fill="#a9d6e5" fill-opacity="1"><g transform="translate(126.838599, 199.675084)"><g><path d="M 3.21875 0 L 3.21875 -46.0625 L 12.6875 -46.0625 L 12.6875 0 Z M 3.21875 0 "/></g></g></g><g fill="#a9d6e5" fill-opacity="1"><g transform="translate(138.190639, 199.675084)"><g><path d="M 3.21875 0 L 3.21875 -46.0625 L 12.6875 -46.0625 L 12.6875 0 Z M 3.21875 0 "/></g></g></g><g fill="#a9d6e5" fill-opacity="1"><g transform="translate(149.542678, 199.675084)"><g><path d="M 5.8125 -3.265625 C 2.757812 -5.984375 1.234375 -9.460938 1.234375 -13.703125 C 1.234375 -17.953125 2.820312 -21.441406 6 -24.171875 C 9.175781 -26.910156 13.101562 -28.28125 17.78125 -28.28125 C 22.382812 -28.28125 26.265625 -26.90625 29.421875 -24.15625 C 32.585938 -21.40625 34.171875 -17.921875 34.171875 -13.703125 C 34.171875 -9.492188 32.625 -6.023438 29.53125 -3.296875 C 26.445312 -0.566406 22.53125 0.796875 17.78125 0.796875 C 12.851562 0.796875 8.863281 -0.554688 5.8125 -3.265625 Z M 13.140625 -18.359375 C 11.910156 -17.148438 11.296875 -15.597656 11.296875 -13.703125 C 11.296875 -11.816406 11.882812 -10.273438 13.0625 -9.078125 C 14.25 -7.878906 15.804688 -7.28125 17.734375 -7.28125 C 19.585938 -7.28125 21.113281 -7.882812 22.3125 -9.09375 C 23.507812 -10.3125 24.109375 -11.851562 24.109375 -13.71875 C 24.109375 -15.601562 23.488281 -17.148438 22.25 -18.359375 C 21.019531 -19.578125 19.515625 -20.1875 17.734375 -20.1875 C 15.910156 -20.1875 14.378906 -19.578125 13.140625 -18.359375 Z M 13.140625 -18.359375 "/></g></g></g><g fill="#a9d6e5" fill-opacity="1"><g transform="translate(180.388242, 199.675084)"><g><path d="M 25.65625 -44.1875 L 43.5 0 L 32.671875 0 L 29.40625 -8.84375 L 12.59375 -8.84375 L 9.3125 0 L -1.5 0 L 16.34375 -44.1875 Z M 25.984375 -17.671875 L 21.046875 -30.53125 L 20.9375 -30.53125 L 16.015625 -17.671875 Z M 25.984375 -17.671875 "/></g></g></g><g fill="#a9d6e5" fill-opacity="1"><g transform="translate(217.820907, 199.675084)"><g><path d="M 3.21875 0 L 3.21875 -27.484375 L 12.6875 -27.484375 L 12.6875 -24.578125 L 12.796875 -24.578125 C 15.265625 -27.046875 17.890625 -28.28125 20.671875 -28.28125 C 22.671875 -28.28125 24.546875 -27.867188 26.296875 -27.046875 C 28.046875 -26.222656 29.367188 -24.957031 30.265625 -23.25 C 33.046875 -26.601562 36.082031 -28.28125 39.375 -28.28125 C 42.300781 -28.28125 44.816406 -27.457031 46.921875 -25.8125 C 49.023438 -24.175781 50.078125 -21.609375 50.078125 -18.109375 L 50.078125 0 L 40.59375 0 L 40.59375 -15.53125 C 40.59375 -17 40.191406 -18.222656 39.390625 -19.203125 C 38.585938 -20.179688 37.382812 -20.671875 35.78125 -20.671875 C 34.382812 -20.671875 33.320312 -20.25 32.59375 -19.40625 C 31.863281 -18.570312 31.460938 -17.566406 31.390625 -16.390625 L 31.390625 0 L 21.90625 0 L 21.90625 -15.53125 C 21.90625 -17 21.503906 -18.222656 20.703125 -19.203125 C 19.898438 -20.179688 18.695312 -20.671875 17.09375 -20.671875 C 15.625 -20.671875 14.519531 -20.210938 13.78125 -19.296875 C 13.050781 -18.390625 12.6875 -17.3125 12.6875 -16.0625 L 12.6875 0 Z M 3.21875 0 "/></g></g></g><g fill="#a9d6e5" fill-opacity="1"><g transform="translate(266.017831, 199.675084)"><g><path d="M 31.484375 -24.078125 C 34.054688 -21.273438 35.34375 -17.835938 35.34375 -13.765625 C 35.34375 -9.691406 34.054688 -6.242188 31.484375 -3.421875 C 28.921875 -0.609375 25.65625 0.796875 21.6875 0.796875 C 18.050781 0.796875 15.050781 -0.34375 12.6875 -2.625 L 12.6875 13.921875 L 3.21875 13.921875 L 3.21875 -27.484375 L 12.59375 -27.484375 L 12.59375 -24.375 L 12.6875 -24.375 C 15.050781 -26.976562 18.050781 -28.28125 21.6875 -28.28125 C 25.65625 -28.28125 28.921875 -26.878906 31.484375 -24.078125 Z M 23.421875 -9.09375 C 24.660156 -10.3125 25.28125 -11.867188 25.28125 -13.765625 C 25.28125 -15.660156 24.691406 -17.203125 23.515625 -18.390625 C 22.335938 -19.585938 20.785156 -20.1875 18.859375 -20.1875 C 16.992188 -20.1875 15.460938 -19.578125 14.265625 -18.359375 C 13.078125 -17.148438 12.484375 -15.617188 12.484375 -13.765625 C 12.484375 -11.867188 13.097656 -10.3125 14.328125 -9.09375 C 15.554688 -7.882812 17.066406 -7.28125 18.859375 -7.28125 C 20.671875 -7.28125 22.191406 -7.882812 23.421875 -9.09375 Z M 23.421875 -9.09375 "/></g></g></g><path stroke-linecap="butt" transform="matrix(0.75, 0, 0, 0.75, 37.500002, 228.073139)" fill="none" stroke-linejoin="miter" d="M -0.00000271667 5.001439 L 84.432294 5.001439 " stroke="#a9d6e5" stroke-width="10" stroke-opacity="1" stroke-miterlimit="4"/><path stroke-linecap="butt" transform="matrix(0, 0.75, -0.75, 0, 44.996157, 171.479446)" fill="none" stroke-linejoin="miter" d="M 0.00136321 5.000084 L 82.46491 5.000084 " stroke="#a9d6e5" stroke-width="10" stroke-opacity="1" stroke-miterlimit="4"/><path stroke-linecap="butt" transform="matrix(-0.75, 0, 0, -0.75, 332.413255, 146.919146)" fill="none" stroke-linejoin="miter" d="M -0.0010771 5.00157 L 84.43122 5.00157 " stroke="#a9d6e5" stroke-width="10" stroke-opacity="1" stroke-miterlimit="4"/><path stroke-linecap="butt" transform="matrix(0, -0.75, 0.75, 0, 324.917093, 203.512837)" fill="none" stroke-linejoin="miter" d="M 0.00149105 5.001168 L 82.465038 5.001168 " stroke="#a9d6e5" stroke-width="10" stroke-opacity="1" stroke-miterlimit="4"/></svg>